# xmcd CD database file
#
# Track frame offsets:
#	187
#	12994
#	25144
#	37867
#	51099
#	63387
#	77177
#	88967
#	102304
#	114797
#	126487
#	138819
#	150304
#	163344
#	177179
#	195124
#	208674
#	222112
#	233379
#	246012
#	256419
#	267437
#	277842
#	295144
#	305789
#
# Disc length: 4264 seconds
#
# Revision: 3
# Processed by: cddbd v1.4PL0 Copyright (c) Steve Scherf et al.
# Submitted via: CDex 1.40Beta9
#
DISCID=5410a619
DTITLE=Smokey Robinson and The Miracles - The Ultimate Collection
DYEAR=1900
DGENRE=
TTITLE0=Going To A Go-Go
TTITLE1=I Second That Emotion
TTITLE2=Shop Around
TTITLE3=Way Over There
TTITLE4=Bad Girl
TTITLE5=Who's Lovin' You
TTITLE6=I'll Try Something New
TTITLE7=You've Really Got A Hold On Me
TTITLE8=Mickey's Monkey
TTITLE9=I Like It Like That
TTITLE10=Ooo Baby Baby
TTITLE11=Choosey Beggar
TTITLE12=My Girl Has Gone
TTITLE13=The Tears Of A Clown
TTITLE14=Baby, Baby Don't Cry
TTITLE15=The Tracks Of My Tears
TTITLE16=The Love I Saw In You Was Just A Mirage
TTITLE17=(Come 'Round Here) I'm The One You Need
TTITLE18=More Love
TTITLE19=Special Occation
TTITLE20=If You Can Want
TTITLE21=Yester Love
TTITLE22=We've Come Too Far To End It Now
TTITLE23=What's So Good About Goodbye
TTITLE24=(You Can) Depend On Me
EXTD=
EXTT0=
EXTT1=
EXTT2=
EXTT3=
EXTT4=
EXTT5=
EXTT6=
EXTT7=
EXTT8=
EXTT9=
EXTT10=
EXTT11=
EXTT12=
EXTT13=
EXTT14=
EXTT15=
EXTT16=
EXTT17=
EXTT18=
EXTT19=
EXTT20=
EXTT21=
EXTT22=
EXTT23=
EXTT24=
PLAYORDER=
